<svg xmlns="http://www.w3.org/2000/svg" width="256" height="256" viewBox="0 0 100 100"><rect width="100" height="100" rx="20" fill="#1e2939"></rect><path fill="#fff" d="M10.82 69.17L10.57 69.17L10.57 38.89Q10.57 34.42 16.11 32.13L16.11 32.13Q19.21 30.83 22.90 30.83L22.90 30.83Q26.61 30.83 29.69 32.13L29.69 32.13Q31.54 32.91 32.79 33.91L32.79 33.91Q34.03 32.91 35.89 32.13L35.89 32.13Q38.96 30.83 42.68 30.83L42.68 30.83Q46.36 30.83 49.46 32.13L49.46 32.13Q55.00 34.42 55.00 38.89L55.00 38.89L55.00 66.97L50.37 69.17L50.12 69.17L50.12 38.89Q50.12 37.21 47.17 36.04L47.17 36.04Q45.12 35.23 42.68 35.23Q40.23 35.23 38.18 36.04L38.18 36.04Q35.23 37.21 35.23 38.89L35.23 38.89L35.23 66.97L30.59 69.17L30.35 69.17L30.35 38.89Q30.35 37.21 27.39 36.04L27.39 36.04Q25.34 35.23 22.90 35.23Q20.46 35.23 18.41 36.04L18.41 36.04Q15.45 37.21 15.45 38.89L15.45 38.89L15.45 66.97L10.82 69.17ZM89.18 54.76L89.43 54.76L89.43 60.62Q89.43 65.09 83.89 67.38L83.89 67.38Q80.79 68.68 77.10 68.68Q73.41 68.68 70.31 67.38L70.31 67.38Q64.77 65.09 64.77 60.62L64.77 60.62L64.77 38.89Q64.77 34.42 70.31 32.13L70.31 32.13Q73.41 30.83 77.10 30.83Q80.79 30.83 83.89 32.13L83.89 32.13Q89.43 34.42 89.43 38.89L89.43 38.89L89.43 42.55L84.79 44.75L84.55 44.75L84.55 38.89Q84.55 37.23 81.59 36.04L81.59 36.04Q79.54 35.23 77.10 35.23Q74.66 35.23 72.61 36.04L72.61 36.04Q69.65 37.21 69.65 38.89L69.65 38.89L69.65 60.62Q69.65 62.28 72.61 63.48L72.61 63.48Q74.66 64.28 77.10 64.28Q79.54 64.28 81.59 63.48L81.59 63.48Q84.55 62.30 84.55 60.62L84.55 60.62L84.55 56.96L89.18 54.76Z"></path></svg>